<svg width="26" height="25" viewBox="0 0 26 25" fill="none" xmlns="http://www.w3.org/2000/svg">
<g id="arrow-down-short">
<path id="Path 108" fill-rule="evenodd" clip-rule="evenodd" d="M0.532675 10.8434C0.703361 10.6833 0.906024 10.5563 1.12908 10.4696C1.35214 10.383 1.59123 10.3384 1.83267 10.3384C2.07413 10.3384 2.31321 10.383 2.53627 10.4696C2.75933 10.5563 2.96199 10.6833 3.13268 10.8434L12.8607 19.9671L22.5897 10.8434C22.7569 10.6693 22.9601 10.5289 23.1871 10.4308C23.414 10.3328 23.6598 10.279 23.9096 10.2729C24.1594 10.2668 24.4079 10.3084 24.64 10.3952C24.8721 10.482 25.0829 10.6122 25.2596 10.7778C25.4363 10.9435 25.5751 11.1411 25.6677 11.3587C25.7603 11.5763 25.8047 11.8092 25.7982 12.0434C25.7916 12.2776 25.7343 12.5081 25.6297 12.7208C25.5251 12.9336 25.3754 13.1241 25.1897 13.2809L14.1687 23.6234C13.998 23.7835 13.7953 23.9105 13.5723 23.9971C13.3492 24.0838 13.1101 24.1284 12.8687 24.1284C12.6272 24.1284 12.3881 24.0838 12.1651 23.9971C11.942 23.9105 11.7394 23.7835 11.5687 23.6234L0.538675 13.2827C0.3679 13.1227 0.232428 12.9327 0.14 12.7236C0.0475724 12.5145 0 12.2903 0 12.064C0 11.8376 0.0475724 11.6135 0.14 11.4044C0.232428 11.1952 0.3679 11.0053 0.538675 10.8452L0.532675 10.8434Z" fill="#203C3D"/>
<path id="Path 109" fill-rule="evenodd" clip-rule="evenodd" d="M12.8627 2.55054e-07C13.1041 2.55054e-07 13.3431 0.0445705 13.5661 0.131166C13.789 0.217761 13.9917 0.344685 14.1623 0.504692C14.333 0.664699 14.4684 0.854655 14.5608 1.06371C14.6531 1.27277 14.7007 1.49684 14.7007 1.72313V18.9572C14.7007 19.4143 14.507 19.8527 14.1622 20.1759C13.8174 20.4992 13.3498 20.6808 12.8622 20.6808C12.3746 20.6808 11.907 20.4992 11.5622 20.1759C11.2174 19.8527 11.0237 19.4143 11.0237 18.9572V1.72313C11.0237 1.49676 11.0713 1.27262 11.1637 1.0635C11.2561 0.854377 11.3916 0.664379 11.5624 0.50436C11.7332 0.344341 11.9359 0.217436 12.159 0.130896C12.3821 0.0443565 12.6212 -0.000122902 12.8627 2.55054e-07Z" fill="#203C3D"/>
</g>
</svg>
