<svg width="21" height="21" viewBox="0 0 21 21" fill="none" xmlns="http://www.w3.org/2000/svg">
<g id="eva:search-outline">
<path id="Vector" d="M17.2708 16.5762L14.4375 13.7512C15.3516 12.5865 15.8476 11.1484 15.8458 9.66783C15.8458 8.34929 15.4548 7.06036 14.7223 5.96403C13.9897 4.8677 12.9485 4.01322 11.7303 3.50863C10.5122 3.00405 9.17173 2.87203 7.87852 3.12926C6.58531 3.3865 5.39743 4.02143 4.46508 4.95378C3.53273 5.88613 2.89779 7.07402 2.64055 8.36723C2.38332 9.66043 2.51534 11.0009 3.01992 12.2191C3.52451 13.4372 4.37899 14.4784 5.47532 15.211C6.57165 15.9435 7.86058 16.3345 9.17912 16.3345C10.6597 16.3363 12.0978 15.8403 13.2625 14.9262L16.0875 17.7595C16.1649 17.8376 16.2571 17.8996 16.3586 17.9419C16.4602 17.9842 16.5691 18.006 16.6791 18.006C16.7891 18.006 16.8981 17.9842 16.9996 17.9419C17.1012 17.8996 17.1933 17.8376 17.2708 17.7595C17.3489 17.682 17.4109 17.5899 17.4532 17.4883C17.4955 17.3868 17.5173 17.2778 17.5173 17.1678C17.5173 17.0578 17.4955 16.9489 17.4532 16.8473C17.4109 16.7458 17.3489 16.6536 17.2708 16.5762ZM4.17912 9.66783C4.17912 8.67892 4.47237 7.71222 5.02177 6.88998C5.57118 6.06773 6.35207 5.42687 7.2657 5.04843C8.17933 4.66999 9.18467 4.57098 10.1546 4.7639C11.1245 4.95683 12.0154 5.43303 12.7147 6.1323C13.4139 6.83156 13.8901 7.72247 14.083 8.69238C14.276 9.66228 14.177 10.6676 13.7985 11.5812C13.4201 12.4949 12.7792 13.2758 11.957 13.8252C11.1347 14.3746 10.168 14.6678 9.17912 14.6678C7.85304 14.6678 6.58127 14.141 5.64359 13.2034C4.70591 12.2657 4.17912 10.9939 4.17912 9.66783Z" fill="#1E1E1E"/>
</g>
</svg>
