<svg width="16" height="19" viewBox="0 0 16 19" fill="none" xmlns="http://www.w3.org/2000/svg">
<g id="Group 22">
<path id="Path 54" d="M0.829554 9.07591C0.829554 6.51124 0.829554 3.94438 0.829554 1.37571C0.829554 0.402714 1.21352 0.00366667 2.17452 0.00266667C5.19052 -0.00333333 8.20662 0.00266667 11.2226 0.00266667C11.3297 -0.00325545 11.4366 0.0149343 11.5359 0.055401C11.6351 0.0958678 11.7242 0.157488 11.7966 0.236553C13.0636 1.51855 14.3346 2.79877 15.6196 4.06077C15.7493 4.17885 15.8512 4.32435 15.9179 4.48655C15.9847 4.64875 16.0146 4.8236 16.0056 4.99876C15.9916 8.89876 15.9975 12.7988 15.9965 16.7058C15.9965 17.7558 15.6486 18.1125 14.6096 18.1125C10.5049 18.1125 6.40059 18.1125 2.29659 18.1125C1.17159 18.1125 0.831629 17.7656 0.831629 16.6286C0.829629 14.112 0.828887 11.5946 0.829554 9.07591ZM11.2296 0.500714C11.0096 0.488714 10.8425 0.473858 10.6735 0.473858C7.87355 0.473858 5.07563 0.473858 2.27963 0.473858C1.49163 0.473858 1.31153 0.646542 1.30953 1.42454C1.30487 3.78854 1.30487 6.15221 1.30953 8.51487C1.30953 11.2669 1.30953 14.0184 1.30953 16.7698C1.30953 17.4158 1.50956 17.6496 2.06356 17.6496C6.30756 17.6576 10.5519 17.6595 14.7966 17.6555C14.8983 17.672 15.0024 17.6643 15.1004 17.6325C15.1984 17.6008 15.2875 17.5459 15.3602 17.4729C15.4329 17.3999 15.4872 17.3108 15.5185 17.2126C15.5499 17.1145 15.5575 17.0105 15.5406 16.9089C15.5406 13.0089 15.5405 9.10888 15.5485 5.20189C15.5485 4.86389 15.4216 4.78185 15.1076 4.78685C14.2226 4.80285 13.3355 4.79885 12.4495 4.78685C11.6055 4.77685 11.2365 4.39959 11.2315 3.54759C11.2245 2.55159 11.2296 1.55771 11.2296 0.500714Z" fill="#203C3D"/>
<path id="Path 55" d="M3.92454 7.65716C3.89954 6.84516 3.83055 6.06407 4.53855 5.49407C5.01155 5.11307 5.15261 5.13247 5.47861 5.62347C5.44913 5.71655 5.44348 5.81528 5.46238 5.91107C5.48128 6.00685 5.52403 6.09641 5.58665 6.17132C5.64927 6.24623 5.72973 6.30419 5.82065 6.33978C5.91158 6.37536 6.01008 6.38744 6.10691 6.37493C6.20374 6.36242 6.29584 6.32552 6.37473 6.268C6.45363 6.21048 6.5168 6.1342 6.55833 6.04583C6.59985 5.95747 6.61835 5.86007 6.61228 5.76263C6.60621 5.66518 6.5757 5.57074 6.52354 5.48821C6.68954 5.17521 6.87955 5.16127 7.15855 5.31927C7.40591 5.45134 7.61643 5.64289 7.77097 5.87689C7.92551 6.11088 8.01919 6.37975 8.04356 6.65911C8.06438 6.99206 8.06668 7.32591 8.05051 7.65911L3.92454 7.65716Z" fill="#203C3D"/>
<path id="Path 56" d="M8.35958 10.5026C6.97658 10.5026 5.59463 10.5026 4.21163 10.5026C3.98963 10.5026 3.69367 10.5678 3.70467 10.2028C3.71367 9.88278 3.97957 9.92349 4.19357 9.92349H12.6236C12.8506 9.92349 13.1476 9.88262 13.1336 10.2306C13.1196 10.5786 12.8137 10.5006 12.5957 10.5026C11.8037 10.5096 11.0116 10.5026 10.2186 10.5026H8.35958Z" fill="#203C3D"/>
<path id="Path 57" d="M8.39956 12.8705H4.43654C4.28154 12.8705 4.12548 12.8703 3.97048 12.8563C3.93114 12.8562 3.89229 12.848 3.85659 12.8314C3.82088 12.8149 3.78924 12.7906 3.76369 12.7606C3.73814 12.7307 3.71936 12.696 3.70864 12.6581C3.69791 12.6203 3.69551 12.5803 3.70156 12.5414C3.70156 12.3634 3.83058 12.3046 3.97658 12.2836C4.08489 12.2728 4.19372 12.2689 4.30251 12.2724C7.02184 12.2724 9.74157 12.2747 12.4616 12.2787C12.7066 12.2787 13.1196 12.1367 13.1326 12.5517C13.1466 13.0187 12.7126 12.8597 12.4556 12.8637C11.1046 12.8787 9.75156 12.8705 8.39956 12.8705Z" fill="#203C3D"/>
<path id="Path 58" d="M8.40656 15.2216C7.03922 15.2216 5.67258 15.2216 4.30658 15.2216C4.16691 15.2246 4.02729 15.2139 3.88959 15.1904C3.82739 15.1773 3.77232 15.1414 3.73529 15.0898C3.69827 15.0381 3.68203 14.9747 3.68964 14.9116C3.68452 14.8483 3.70402 14.7855 3.74408 14.7363C3.78415 14.6871 3.84164 14.6552 3.9046 14.6474C4.01239 14.6341 4.121 14.6289 4.22956 14.6323H12.4836C12.6076 14.6323 12.7325 14.6325 12.8555 14.6425C13.0295 14.6595 13.1556 14.7425 13.1496 14.9355C13.1436 15.1285 13.0106 15.2024 12.8386 15.2094C12.6666 15.2164 12.4966 15.2206 12.3256 15.2206H8.40863L8.40656 15.2216Z" fill="#203C3D"/>
<path id="Path 59" d="M7.21456 3.71173C7.21727 3.87861 7.18513 4.04429 7.1202 4.19805C7.05527 4.35182 6.95898 4.49035 6.83749 4.60479C6.71599 4.71923 6.572 4.80699 6.41463 4.86261C6.25727 4.91822 6.08997 4.94023 5.92355 4.92755C5.5953 4.91274 5.2862 4.76903 5.0638 4.52716C4.84141 4.28528 4.72379 3.96486 4.73653 3.63653C4.7531 3.3085 4.8967 3.00017 5.13692 2.77618C5.37715 2.55219 5.69513 2.43043 6.02352 2.43682C6.18618 2.43998 6.34661 2.47555 6.4952 2.5418C6.64379 2.60806 6.77758 2.70368 6.88863 2.82257C6.99969 2.94146 7.0857 3.08143 7.14169 3.23419C7.19767 3.38694 7.22249 3.54923 7.21456 3.71173Z" fill="#203C3D"/>
<path id="Path 60" d="M10.9858 7.54555C10.4288 7.54555 9.87064 7.53955 9.31364 7.54555C9.08464 7.54555 8.88963 7.49575 8.87663 7.24575C8.86263 6.96475 9.10063 6.94546 9.30363 6.94546C10.4496 6.94079 11.595 6.94079 12.7397 6.94546C12.9297 6.94546 13.1398 6.9615 13.1508 7.2145C13.1638 7.4855 12.9757 7.54751 12.7507 7.54751H10.9867L10.9858 7.54555Z" fill="#203C3D"/>
</g>
</svg>
