<svg width="16" height="16" viewBox="0 0 16 16" fill="none" xmlns="http://www.w3.org/2000/svg">
<g id="Instagram">
<path id="Shape" fill-rule="evenodd" clip-rule="evenodd" d="M8.19242 -0.000244141C6.08614 -0.000244141 5.82181 0.00926189 4.99455 0.0481199C4.1689 0.0871447 3.60533 0.222064 3.11221 0.420023C2.60212 0.624486 2.16942 0.897993 1.73834 1.34311C1.30694 1.78806 1.04196 2.23467 0.843223 2.76101C0.65095 3.27016 0.520075 3.85203 0.482913 4.70391C0.445913 5.55778 0.436218 5.83079 0.436218 8.00484C0.436218 10.1789 0.44559 10.4509 0.483075 11.3048C0.521045 12.157 0.651758 12.7387 0.843385 13.2477C1.04164 13.7742 1.30662 14.2208 1.73786 14.6657C2.16878 15.111 2.60147 15.3852 3.11124 15.5896C3.60469 15.7876 4.16842 15.9225 4.9939 15.9616C5.82116 16.0004 6.08533 16.0099 8.19145 16.0099C10.2979 16.0099 10.5614 16.0004 11.3887 15.9616C12.2143 15.9225 12.7785 15.7876 13.272 15.5896C13.7819 15.3852 14.214 15.111 14.6449 14.6657C15.0763 14.2208 15.3413 13.7742 15.54 13.2478C15.7307 12.7387 15.8615 12.1568 15.9003 11.3049C15.9375 10.4511 15.9472 10.1789 15.9472 8.00484C15.9472 5.83079 15.9375 5.55795 15.9003 4.70407C15.8615 3.85187 15.7307 3.27016 15.54 2.76117C15.3413 2.23467 15.0763 1.78806 14.6449 1.34311C14.2135 0.897826 13.7821 0.624319 13.2715 0.420023C12.7771 0.222064 12.2132 0.0871447 11.3875 0.0481199C10.5603 0.00926189 10.2969 -0.000244141 8.19 -0.000244141H8.19242ZM7.49685 1.4417C7.70334 1.44137 7.93375 1.4417 8.19259 1.4417C10.2633 1.4417 10.5088 1.44937 11.3265 1.48773C12.0826 1.52342 12.493 1.65383 12.7664 1.7634C13.1284 1.90849 13.3864 2.08194 13.6577 2.36212C13.9291 2.64229 14.0972 2.90913 14.238 3.2827C14.3442 3.56455 14.4707 3.98815 14.5051 4.76864C14.5423 5.61251 14.5504 5.86601 14.5504 8.00236C14.5504 10.1387 14.5423 10.3922 14.5051 11.2361C14.4705 12.0166 14.3442 12.4402 14.238 12.722C14.0975 13.0956 13.9291 13.3616 13.6577 13.6416C13.3862 13.9218 13.1285 14.0952 12.7664 14.2403C12.4934 14.3504 12.0826 14.4805 11.3265 14.5162C10.5089 14.5545 10.2633 14.5629 8.19259 14.5629C6.12169 14.5629 5.87626 14.5545 5.0587 14.5162C4.30253 14.4801 3.89213 14.3497 3.61859 14.2402C3.25666 14.0951 2.99814 13.9216 2.7267 13.6414C2.45525 13.3613 2.28722 13.0951 2.14632 12.7214C2.04017 12.4395 1.91366 12.0159 1.87924 11.2354C1.84208 10.3915 1.83465 10.138 1.83465 8.00036C1.83465 5.86267 1.84208 5.61051 1.87924 4.76664C1.91382 3.98615 2.04017 3.56254 2.14632 3.28036C2.28689 2.90679 2.45525 2.63996 2.7267 2.35978C2.99814 2.0796 3.25666 1.90616 3.61859 1.76073C3.89197 1.65066 4.30253 1.52058 5.0587 1.48473C5.77415 1.45137 6.05141 1.44137 7.49685 1.4397V1.4417ZM12.3325 2.77157C11.8187 2.77157 11.4019 3.20135 11.4019 3.73185C11.4019 4.26219 11.8187 4.69246 12.3325 4.69246C12.8463 4.69246 13.2632 4.26219 13.2632 3.73185C13.2632 3.20151 12.8463 2.77124 12.3325 2.77124V2.77157ZM8.19254 3.8938C5.99303 3.8938 4.20974 5.73447 4.20974 8.00474C4.20974 10.275 5.99303 12.1148 8.19254 12.1148C10.392 12.1148 12.1747 10.275 12.1747 8.00474C12.1747 5.73447 10.3919 3.8938 8.19238 3.8938H8.19254ZM8.19241 5.33667C9.62008 5.33667 10.7776 6.53126 10.7776 8.00503C10.7776 9.47863 9.62008 10.6734 8.19241 10.6734C6.76458 10.6734 5.60722 9.47863 5.60722 8.00503C5.60722 6.53126 6.76458 5.33667 8.19241 5.33667Z" fill="white"/>
</g>
</svg>
