<svg width="5" height="2" viewBox="0 0 5 2" fill="none" xmlns="http://www.w3.org/2000/svg">
<path id="Path 126" d="M2.3212 1.86255H0.727203C0.634743 1.86743 0.542272 1.85371 0.45523 1.82215C0.368189 1.79058 0.288327 1.74185 0.220489 1.67884C0.152651 1.61582 0.0982242 1.53981 0.0603328 1.45533C0.0224413 1.37085 0.00185184 1.27958 -9.20255e-05 1.18702C-0.00203589 1.09445 0.0146687 1.0025 0.0489802 0.916508C0.0832918 0.830512 0.134482 0.75221 0.199615 0.686405C0.264748 0.6206 0.342491 0.568644 0.428131 0.533451C0.51377 0.498259 0.605567 0.480578 0.69815 0.481571C1.78215 0.472571 2.86623 0.475571 3.95023 0.481571C4.122 0.481225 4.28755 0.545579 4.41409 0.661747C4.54064 0.777915 4.61889 0.937465 4.63321 1.10865C4.648 1.27118 4.60492 1.43372 4.51163 1.56763C4.41833 1.70154 4.28079 1.79815 4.1232 1.84058C3.96362 1.86684 3.80147 1.8742 3.64017 1.86255C3.20117 1.86355 2.7612 1.86255 2.3212 1.86255ZM2.3212 1.52662H3.8782C3.91793 1.52728 3.95769 1.5256 3.99722 1.52161C4.08243 1.50106 4.15695 1.4497 4.20657 1.37745C4.25619 1.30519 4.27732 1.21716 4.2659 1.13025C4.25448 1.04335 4.21141 0.963723 4.14481 0.906742C4.0782 0.849761 3.99281 0.819368 3.90518 0.821537H0.735137H0.671173C0.588044 0.826289 0.509435 0.860905 0.449737 0.918949C0.390039 0.976994 0.353305 1.05461 0.346221 1.13758C0.340057 1.18946 0.345581 1.24202 0.362335 1.29151C0.379088 1.34099 0.406611 1.38612 0.443023 1.42359C0.479435 1.46105 0.523796 1.4899 0.572784 1.50806C0.621772 1.52622 0.674192 1.53325 0.726226 1.52857C1.25723 1.52657 1.78824 1.52662 2.31924 1.52662H2.3212Z" fill="#203C3D"/>
</svg>
