<svg width="12" height="13" viewBox="0 0 12 13" fill="none" xmlns="http://www.w3.org/2000/svg">
<path id="Path 124" d="M11.6432 5.97065C11.6012 6.81065 11.5541 7.64869 11.4851 8.48469C11.4321 9.16942 11.344 9.85098 11.2211 10.5267C11.161 10.9003 11.055 11.2651 10.9052 11.6126C10.7928 11.8486 10.611 12.0447 10.3842 12.1746C9.97252 12.4088 9.52362 12.5706 9.05716 12.6527C8.04098 12.8543 7.00389 12.9305 5.96915 12.8796C5.322 12.8619 4.67732 12.7928 4.04117 12.6727C3.51462 12.5827 3.00306 12.4201 2.52115 12.1896C2.13706 12.013 1.83762 11.6928 1.68717 11.2977C1.52272 10.8385 1.39624 10.3666 1.30912 9.88666C1.14272 9.00514 1.02195 8.11559 0.947177 7.22162C0.859194 6.44452 0.820792 5.66267 0.832186 4.88068C0.857187 3.95724 1.19258 3.06915 1.78421 2.35969C2.4316 1.59146 3.29379 1.03418 4.26016 0.759588C5.03047 0.527106 5.83625 0.434694 6.63919 0.486639C7.36581 0.520866 8.08104 0.6806 8.75321 0.958685C9.08258 1.09636 9.39765 1.26581 9.69413 1.46467C10.1989 1.7998 10.6298 2.23468 10.9601 2.74262C11.4273 3.47567 11.6649 4.33163 11.6421 5.20063C11.6411 5.45763 11.6432 5.71665 11.6432 5.97065ZM11.2981 6.05964C11.2981 5.91364 11.2981 5.7667 11.2981 5.6197C11.3202 5.21922 11.3059 4.81749 11.2552 4.41962C11.1712 3.8989 10.9833 3.40046 10.7028 2.9538C10.4223 2.50714 10.0547 2.12142 9.6221 1.81965C9.21549 1.52669 8.76633 1.29803 8.29019 1.14167C7.40117 0.845556 6.45841 0.745937 5.52713 0.849676C4.73506 0.922556 3.96711 1.16099 3.2731 1.54963C2.68278 1.87603 2.1791 2.33889 1.80411 2.8996C1.38054 3.5407 1.15711 4.29322 1.16214 5.06159C1.16214 5.78259 1.22312 6.4996 1.28812 7.2176C1.36683 8.15741 1.49736 9.09222 1.67911 10.0176C1.75374 10.4225 1.86597 10.8196 2.01419 11.2037C2.09976 11.4337 2.25633 11.6306 2.46121 11.7657C2.82112 11.9848 3.21419 12.1438 3.62516 12.2366C4.5341 12.4538 5.46565 12.5622 6.40018 12.5596C7.18528 12.5737 7.96992 12.5121 8.7432 12.3757C9.22041 12.3045 9.68355 12.1594 10.1161 11.9456C10.3482 11.8375 10.532 11.6473 10.6321 11.4117C10.7007 11.2387 10.7576 11.0613 10.8022 10.8807C10.9885 10.0284 11.1105 9.16326 11.1671 8.29267C11.2291 7.54767 11.2702 6.80464 11.2972 6.05964H11.2981Z" fill="#203C3D"/>
</svg>
