<svg width="7" height="6" viewBox="0 0 7 6" fill="none" xmlns="http://www.w3.org/2000/svg">
<path id="Path 125" d="M3.51816 0.512662H6.19321C6.37027 0.509951 6.54262 0.569361 6.68039 0.680631C6.81815 0.791901 6.91251 0.947997 6.94711 1.12167C6.95933 1.20005 6.96437 1.27932 6.96213 1.35861C6.96213 2.39061 6.96213 3.42392 6.96213 4.45859C6.96782 4.56454 6.95129 4.67057 6.91354 4.76974C6.8758 4.86891 6.81771 4.95903 6.74301 5.03439C6.66831 5.10975 6.57866 5.16863 6.47983 5.20724C6.38099 5.24586 6.27516 5.26339 6.16916 5.25863C5.18316 5.25863 4.19715 5.25863 3.21115 5.25863C2.43015 5.25863 1.64916 5.25863 0.867155 5.25863C0.691454 5.26576 0.518665 5.21188 0.378142 5.10617C0.237618 5.00046 0.138015 4.84947 0.0961594 4.67868C0.0775314 4.60143 0.0687938 4.52204 0.0701584 4.44259C0.0701584 3.85926 0.0701584 3.27593 0.0701584 2.69259C0.0701584 2.22859 0.0701584 1.7656 0.0701584 1.3016C0.0675552 1.19828 0.085921 1.09559 0.124236 0.999601C0.16255 0.903613 0.220025 0.81638 0.293059 0.743253C0.366093 0.670125 0.453224 0.612623 0.549162 0.574186C0.645101 0.535748 0.747842 0.517149 0.851164 0.51962L3.51816 0.512662ZM3.51816 4.91269H6.16513C6.24435 4.91882 6.32375 4.90356 6.39511 4.86862C6.46827 4.8312 6.52927 4.7737 6.57089 4.70285C6.61251 4.632 6.63302 4.55071 6.6301 4.46859C6.6301 3.42726 6.6301 2.38603 6.6301 1.34469C6.64069 1.27706 6.63528 1.20781 6.61423 1.14267C6.59318 1.07752 6.55717 1.01822 6.509 0.969571C6.46083 0.920919 6.40194 0.884219 6.337 0.862516C6.27207 0.840812 6.20284 0.834783 6.1351 0.844693H0.876189C0.812575 0.840551 0.748825 0.8502 0.689299 0.873014C0.629773 0.895827 0.575891 0.931177 0.53134 0.976773C0.486789 1.02237 0.452548 1.07713 0.43112 1.13717C0.409693 1.19721 0.401579 1.26117 0.407195 1.32467C0.407195 1.68167 0.407199 2.0386 0.412199 2.3956C0.412199 3.07693 0.412199 3.75802 0.412199 4.43869C0.403714 4.53694 0.427587 4.63518 0.480193 4.71859C0.522413 4.78275 0.58043 4.83491 0.648772 4.86996C0.717113 4.90501 0.793468 4.92182 0.870207 4.91867C1.75121 4.91267 2.6332 4.91269 3.5162 4.91269H3.51816Z" fill="#203C3D"/>
</svg>
