<svg width="19" height="21" viewBox="0 0 19 21" fill="none" xmlns="http://www.w3.org/2000/svg">
<path id="Path 123" d="M5.15519 3.46667C5.40246 3.321 5.66089 3.19529 5.92814 3.0907C5.97987 3.07558 6.02541 3.04427 6.05815 3.00146C6.09089 2.95865 6.10912 2.90654 6.11015 2.85266C6.16027 2.51179 6.28165 2.18537 6.46635 1.89453C6.65105 1.60369 6.89496 1.35497 7.18217 1.16467C7.8197 0.734427 8.58015 0.523806 9.34819 0.564695C10.0587 0.564139 10.7516 0.784648 11.3311 1.19568C11.6188 1.39632 11.8604 1.65596 12.0397 1.9574C12.2191 2.25883 12.3321 2.59504 12.3711 2.9436C12.3713 2.96883 12.3797 2.9934 12.3951 3.01343C12.4104 3.03346 12.4318 3.04794 12.4561 3.05469C12.6641 3.13169 12.8621 3.23469 13.0691 3.33069C13.1741 3.13669 13.2692 2.93668 13.3752 2.74768C13.5961 2.34937 13.8817 1.99048 14.2201 1.68567C14.4353 1.48617 14.7 1.34803 14.9867 1.28576C15.2735 1.2235 15.5716 1.23937 15.8501 1.33166C16.3083 1.46027 16.7205 1.71621 17.0391 2.0697C17.1163 2.15242 17.1743 2.25102 17.2091 2.35864C17.2344 2.41325 17.2682 2.46358 17.3091 2.50769C17.5203 2.83339 17.6777 3.19092 17.7752 3.56665C17.9924 4.4125 18.1154 5.27982 18.1421 6.15271C18.1781 6.81771 18.1781 7.48371 18.1531 8.15271C18.1123 9.37629 17.9941 10.596 17.7991 11.8047C17.6879 12.543 17.5208 13.2717 17.2991 13.9846C17.1279 14.5423 16.8791 15.0732 16.5601 15.5616C16.4599 15.7116 16.3472 15.8527 16.2232 15.9836C16.1872 16.0204 16.1648 16.0684 16.1601 16.1196C16.0823 16.7827 15.9543 17.4389 15.7771 18.0826C15.7126 18.3212 15.6227 18.5521 15.5091 18.7716C15.3537 19.0436 15.1292 19.2696 14.8582 19.4266C14.3474 19.7268 13.791 19.9421 13.2111 20.0637C12.8431 20.1527 12.4721 20.2217 12.0971 20.2737C11.2024 20.3956 10.3 20.4508 9.39714 20.4387C8.47175 20.4334 7.54835 20.3524 6.63615 20.1967C5.87255 20.0825 5.12784 19.8659 4.42216 19.5526C4.13048 19.4192 3.85861 19.2464 3.61418 19.0387C3.38063 18.8265 3.20243 18.5604 3.09514 18.2637C2.89339 17.7373 2.74111 17.1933 2.64018 16.6387C2.636 16.6039 2.62236 16.5709 2.60087 16.5432C2.57938 16.5156 2.55078 16.4943 2.51811 16.4817C2.25844 16.3495 2.0308 16.162 1.85112 15.9326C1.35536 15.2946 0.996312 14.5615 0.796185 13.7787C0.530263 12.829 0.342905 11.8591 0.236126 10.8787C0.0872299 9.69712 0.011059 8.50753 0.00809908 7.31665C-0.00133299 6.41602 0.0588999 5.51599 0.188153 4.62463C0.263061 4.03995 0.422737 3.46932 0.662152 2.93066C0.720286 2.80277 0.791357 2.6811 0.874188 2.56763C0.928247 2.4945 0.974147 2.41571 1.01115 2.33264C1.11534 2.13443 1.26766 1.96563 1.45414 1.84167C1.80164 1.56774 2.2158 1.39137 2.6541 1.33069C2.87875 1.30094 3.10722 1.31923 3.32426 1.3844C3.54131 1.44956 3.74201 1.56004 3.91313 1.70862C4.37536 2.11447 4.74621 2.61389 5.00114 3.1737C5.04814 3.2657 5.0931 3.35963 5.1381 3.45263C5.1381 3.45463 5.14219 3.45667 5.15519 3.46667ZM15.6202 11.9667H15.6462C15.6462 11.6307 15.6462 11.2957 15.6462 10.9597C15.6578 10.5172 15.6222 10.0746 15.5401 9.63965C15.3769 8.80832 14.9975 8.03463 14.4401 7.3966C13.8853 6.76229 13.1968 6.25887 12.4241 5.92261C11.5319 5.52716 10.5715 5.30854 9.59611 5.27868C8.77803 5.24047 7.95876 5.32366 7.16508 5.52563C6.46008 5.70381 5.78876 5.99531 5.17717 6.38867C4.67028 6.71458 4.22194 7.12361 3.85112 7.59863C3.52708 8.01627 3.27216 8.48326 3.09611 8.98169C2.87301 9.64576 2.77839 10.3462 2.81718 11.0457C2.85818 12.2237 2.96016 13.3976 3.09916 14.5676C3.17916 15.2426 3.27615 15.9156 3.40715 16.5836C3.50534 17.1515 3.65122 17.7102 3.84318 18.2537C3.92905 18.5385 4.0937 18.7933 4.31816 18.9886C4.55168 19.1662 4.80886 19.3102 5.0822 19.4166C5.55349 19.6007 6.04131 19.7391 6.5391 19.8297C7.16667 19.949 7.80138 20.0272 8.43913 20.0637C9.17702 20.1099 9.91707 20.1119 10.6552 20.0697C11.4022 20.0346 12.1447 19.9341 12.8742 19.7697C13.3346 19.6742 13.7786 19.5122 14.1922 19.2887C14.4674 19.1433 14.6824 18.9053 14.7991 18.6167C14.8828 18.4042 14.9523 18.1864 15.0071 17.9647C15.1493 17.3593 15.2552 16.7458 15.3241 16.1277C15.3961 15.5217 15.4601 14.9147 15.5011 14.3047C15.5541 13.5307 15.5962 12.7467 15.6202 11.9647V11.9667ZM3.50114 18.3076C3.49528 18.2783 3.48796 18.2493 3.47917 18.2207C3.36817 17.9043 3.27795 17.5809 3.20915 17.2527C3.05715 16.5807 2.94509 15.9006 2.85209 15.2176C2.75909 14.5346 2.68309 13.8557 2.62309 13.1707C2.57209 12.5907 2.52812 12.0087 2.50212 11.4257C2.45739 10.8246 2.48464 10.2202 2.58317 9.62561C2.78742 8.53437 3.33375 7.53651 4.14311 6.77661C4.81013 6.14791 5.60493 5.6705 6.47319 5.37671C7.02423 5.18613 7.59413 5.05536 8.17314 4.98669C8.87052 4.90101 9.57574 4.90101 10.2731 4.98669C10.9767 5.06686 11.6662 5.24135 12.3232 5.50561C12.8731 5.72642 13.3907 6.02043 13.8621 6.37964C14.3805 6.77516 14.8244 7.25973 15.1731 7.81067C15.3974 8.16767 15.5777 8.55045 15.7101 8.95068C15.9088 9.57067 16.0004 10.2199 15.9811 10.8706C15.9701 11.6616 15.9472 12.4517 15.9062 13.2417C15.8748 13.8517 15.8312 14.4606 15.7752 15.0686C15.7132 15.7546 15.6381 16.4396 15.5221 17.1196C15.4452 17.6538 15.3145 18.1788 15.1321 18.6866C15.1271 18.7006 15.1101 18.7156 15.1321 18.7336C15.2311 18.5975 15.3075 18.4462 15.3582 18.2856C15.5276 17.7806 15.6521 17.2616 15.7301 16.7346C15.8621 15.9636 15.9442 15.1877 16.0152 14.4097C16.0752 13.7557 16.1151 13.1007 16.1531 12.4457C16.2121 11.3117 16.2641 10.1766 16.2531 9.04065C16.2545 8.07562 16.0273 7.124 15.5901 6.26367C15.2477 5.59705 14.781 5.00199 14.2151 4.51062C13.7275 4.08875 13.1816 3.7395 12.5942 3.47363C12.5297 3.43883 12.4601 3.4142 12.3881 3.40063C12.3881 3.76663 12.3711 4.12361 12.3501 4.47961C12.3522 4.50727 12.3473 4.53506 12.3361 4.56042C12.3249 4.58578 12.3076 4.60802 12.2858 4.62512C12.264 4.64222 12.2382 4.65364 12.2109 4.65845C12.1835 4.66326 12.1556 4.66132 12.1292 4.65271C11.8199 4.58604 11.5112 4.51472 11.2032 4.43872C11.0752 4.40872 11.0371 4.35265 11.0431 4.22265C11.0531 4.02265 11.0631 3.81362 11.0701 3.60962C11.0794 3.40284 11.0382 3.19694 10.9501 3.00964C10.9412 2.98761 10.9264 2.96849 10.9074 2.95422C10.8884 2.93995 10.8657 2.93113 10.8421 2.92871C10.5601 2.87771 10.2762 2.83867 9.99016 2.81567C9.19558 2.74771 8.39545 2.78638 7.61113 2.93066C7.58915 2.93395 7.56847 2.94288 7.55095 2.95654C7.53343 2.97021 7.51969 2.98815 7.51115 3.00867C7.40932 3.22704 7.36924 3.46907 7.39518 3.70862C7.40818 3.88162 7.42811 4.05464 7.44011 4.22864C7.45011 4.37064 7.41419 4.41871 7.28019 4.44971L6.38017 4.65967C6.35296 4.6712 6.32323 4.67551 6.29387 4.67212C6.2645 4.66873 6.23644 4.6578 6.21257 4.64038C6.18869 4.62295 6.16981 4.59956 6.15764 4.57263C6.14546 4.5457 6.14042 4.51613 6.14311 4.48669C6.12711 4.30469 6.11312 4.12172 6.10112 3.93872C6.08912 3.75572 6.08011 3.58668 6.07011 3.40368C5.933 3.45336 5.79934 3.51218 5.67009 3.57971C4.94856 3.92944 4.29956 4.4122 3.75712 5.00268C3.27479 5.52796 2.89438 6.13826 2.63517 6.80261C2.3896 7.43173 2.24904 8.09692 2.21916 8.7716C2.19816 9.2146 2.21913 9.65661 2.23613 10.0996C2.27213 11.1196 2.36711 12.1337 2.46611 13.1487C2.53511 13.8567 2.62617 14.5616 2.73417 15.2646C2.83722 15.9982 2.98441 16.7249 3.17509 17.4407C3.24795 17.7413 3.35749 18.0318 3.50114 18.3057V18.3076ZM2.46818 16.0557C2.46118 15.9987 2.45917 15.9656 2.45317 15.9326C2.37117 15.5136 2.29812 15.0936 2.23112 14.6716C2.06812 13.6496 1.93716 12.6246 1.84916 11.5936C1.77616 10.7456 1.72811 9.8937 1.72111 9.0437C1.70817 8.1613 1.75402 7.27903 1.8582 6.40271C1.9531 5.49167 2.18218 4.59959 2.53813 3.75561C2.54655 3.74118 2.5503 3.72453 2.54887 3.70788C2.54744 3.69123 2.54096 3.6755 2.53019 3.66272C2.47919 3.59772 2.43012 3.52764 2.38212 3.46264C2.0575 3.08957 1.5984 2.86025 1.10514 2.82471C1.03364 2.93729 0.971691 3.05572 0.920086 3.17871C0.719357 3.67669 0.582918 4.19823 0.514081 4.73071C0.426628 5.33175 0.375581 5.93748 0.361126 6.54468C0.331329 7.51488 0.354333 8.48591 0.430096 9.45361C0.484096 10.1803 0.567429 10.9043 0.680096 11.6256C0.777802 12.3008 0.919508 12.9689 1.10417 13.6256C1.28802 14.3422 1.60411 15.0182 2.03618 15.6187C2.15843 15.7837 2.30395 15.9303 2.46818 16.0537V16.0557ZM16.2561 15.4047C16.2851 15.3677 16.3032 15.3477 16.3172 15.3257C16.4394 15.1358 16.5489 14.938 16.6452 14.7336C16.9008 14.1764 17.0963 13.5934 17.2282 12.9946C17.3994 12.2426 17.5295 11.4819 17.6181 10.7157C17.7168 9.9097 17.7835 9.101 17.8182 8.28967C17.8492 7.48967 17.8471 6.69666 17.7981 5.89966C17.766 5.05168 17.6245 4.21139 17.3771 3.39966C17.3049 3.1747 17.2041 2.95991 17.0772 2.76062C17.0252 2.77162 16.9772 2.78267 16.9372 2.78967C16.6836 2.82291 16.4399 2.9096 16.2223 3.04407C16.0048 3.17853 15.8182 3.35774 15.6751 3.5697C15.6572 3.5902 15.6463 3.61576 15.6436 3.64282C15.6409 3.66988 15.6466 3.69709 15.6601 3.7207C15.7071 3.8207 15.7432 3.92063 15.7812 4.02063C16.1155 4.95809 16.3204 5.93684 16.3902 6.92969C16.399 7.20119 16.4234 7.472 16.4632 7.74072C16.5335 8.07826 16.5749 8.42106 16.5871 8.76562C16.6111 9.46562 16.5871 10.1657 16.5641 10.8657C16.5391 11.6777 16.5042 12.4877 16.4432 13.2987C16.4062 13.8037 16.3631 14.3087 16.3201 14.8137C16.2961 14.9947 16.2781 15.1877 16.2561 15.4027V15.4047ZM12.0231 4.29065C12.0461 3.94765 12.0541 3.61765 12.0551 3.29065C12.0588 2.83544 11.924 2.3899 11.6686 2.01306C11.4132 1.63622 11.0493 1.34591 10.6252 1.18066C10.1414 0.978327 9.61906 0.88472 9.09514 0.906492C8.57121 0.928265 8.0585 1.06486 7.59318 1.30664C7.24188 1.48697 6.94627 1.75959 6.7382 2.09521C6.53013 2.43084 6.41743 2.81682 6.41215 3.21167C6.40604 3.48336 6.41608 3.75513 6.44218 4.02563C6.439 4.11542 6.44978 4.20515 6.47416 4.29162L7.09611 4.14367C7.08511 4.03367 7.07413 3.93063 7.06413 3.82763C7.0083 3.45926 7.07875 3.08285 7.26408 2.75964C7.39154 2.56703 7.55659 2.40214 7.74919 2.27466C7.94178 2.14718 8.15808 2.05978 8.38517 2.0177C8.80204 1.91946 9.23284 1.89507 9.65812 1.94568C10.0465 1.97388 10.4218 2.09822 10.7502 2.30762C10.9177 2.41486 11.0604 2.55665 11.1689 2.72339C11.2773 2.89013 11.3491 3.07804 11.3792 3.27466C11.4075 3.53589 11.4075 3.79943 11.3792 4.06067C11.3792 4.10567 11.3701 4.14264 11.4301 4.16064C11.6311 4.19464 11.8201 4.24069 12.0231 4.28869V4.29065ZM3.30412 4.87671C3.41387 4.81248 3.51768 4.73844 3.61418 4.65564C3.9708 4.29115 4.36574 3.96627 4.79216 3.68664C4.83716 3.65664 4.84619 3.63367 4.82219 3.58667C4.75319 3.44367 4.6891 3.29867 4.6121 3.15967C4.38885 2.7103 4.08015 2.3088 3.70317 1.97766C3.57728 1.86352 3.42937 1.77633 3.2686 1.72131C3.10783 1.66629 2.93753 1.64464 2.76811 1.65771C2.27202 1.71094 1.80947 1.93343 1.45817 2.28772C1.38647 2.35087 1.33055 2.42995 1.29509 2.51867C1.4824 2.54884 1.66583 2.59948 1.84208 2.66968C2.13102 2.7959 2.39065 2.98076 2.60429 3.21264C2.81793 3.44453 2.981 3.71843 3.08317 4.01672C3.19183 4.29255 3.266 4.58063 3.30412 4.87463V4.87671ZM14.8921 4.69665C14.9417 4.39254 15.0294 4.09594 15.1531 3.81372C15.2761 3.50658 15.4671 3.23118 15.7116 3.0083C15.9561 2.78542 16.2479 2.62072 16.5651 2.52661C16.6651 2.49661 16.7741 2.47463 16.8831 2.44763C16.875 2.42885 16.8661 2.41056 16.8561 2.3927C16.8401 2.36657 16.8224 2.34144 16.8031 2.31763C16.5614 2.03824 16.2513 1.82635 15.9031 1.70263C15.6479 1.59645 15.368 1.56389 15.0951 1.60864C14.7803 1.68058 14.4959 1.84955 14.2821 2.09167C13.9461 2.45084 13.669 2.86087 13.4611 3.30664C13.4301 3.36764 13.4052 3.43271 13.3752 3.50171C13.6527 3.66581 13.9198 3.84681 14.1751 4.0437C14.4288 4.245 14.6697 4.462 14.8962 4.6936L14.8921 4.69665ZM2.75712 4.09668C2.38672 5.10881 2.17168 6.17118 2.11918 7.24768C2.32397 6.5539 2.64447 5.89964 3.06718 5.31262C3.03855 5.28527 3.01638 5.25187 3.00236 5.21484C2.98834 5.17781 2.98278 5.13809 2.98613 5.09863C2.96067 4.75339 2.88347 4.41397 2.75712 4.09167V4.09668ZM15.4222 4.05664C15.4138 4.06939 15.4065 4.0828 15.4002 4.09668C15.2945 4.38692 15.2255 4.68931 15.1951 4.9967C15.1941 5.01633 15.1971 5.03591 15.204 5.05432C15.2109 5.07273 15.2215 5.08951 15.2352 5.10364C15.3272 5.22564 15.4191 5.34768 15.5061 5.47168C15.6738 5.71779 15.8246 5.97507 15.9572 6.2417C15.8803 5.49059 15.7002 4.75359 15.4222 4.05163V4.05664ZM8.02214 2.52966C8.82724 2.42224 9.64306 2.42224 10.4482 2.52966C10.0682 2.35332 9.65449 2.2616 9.23564 2.26074C8.81679 2.25988 8.40278 2.34988 8.02214 2.52466V2.52966Z" fill="#203C3D"/>
</svg>
