<svg width="15" height="13" viewBox="0 0 15 13" fill="none" xmlns="http://www.w3.org/2000/svg">
<path id="Path 106" fill-rule="evenodd" clip-rule="evenodd" d="M5.33908 4.10759L7.15508 0.507595C7.18978 0.43475 7.2444 0.373228 7.31263 0.330155C7.38086 0.287082 7.45989 0.264221 7.54058 0.264221C7.62126 0.264221 7.7003 0.287082 7.76853 0.330155C7.83675 0.373228 7.89138 0.43475 7.92608 0.507595L9.74208 4.10759L13.8141 4.68659C13.9157 4.7024 14.0088 4.75284 14.0775 4.82938C14.1462 4.90592 14.1863 5.00385 14.1911 5.1066C14.1967 5.17497 14.1869 5.24374 14.1623 5.30779C14.1377 5.37184 14.099 5.42954 14.0491 5.47659L11.1201 8.26659L11.8101 12.1986C11.8276 12.2791 11.8221 12.3629 11.7944 12.4405C11.7667 12.5181 11.7178 12.5864 11.6532 12.6376C11.5887 12.6888 11.5111 12.7209 11.4292 12.7303C11.3474 12.7397 11.2645 12.7259 11.1901 12.6906L7.54008 10.8156L3.88608 12.6896C3.84806 12.7095 3.80727 12.7237 3.76508 12.7316C3.69408 12.7414 3.62178 12.734 3.55423 12.71C3.48668 12.6861 3.42586 12.6463 3.37688 12.594C3.3279 12.5417 3.29218 12.4784 3.27273 12.4094C3.25327 12.3404 3.25065 12.2678 3.26508 12.1976L3.95508 8.26559L1.03208 5.47559C0.986251 5.43303 0.949648 5.38152 0.924535 5.32424C0.899421 5.26696 0.886332 5.20514 0.886078 5.14259C0.886329 5.05414 0.910518 4.96741 0.956078 4.89159C0.98925 4.8374 1.03413 4.79131 1.08742 4.7567C1.14071 4.7221 1.20107 4.69985 1.26408 4.69159L5.33908 4.10759ZM7.53908 9.85059C7.60629 9.8502 7.67257 9.86634 7.73208 9.89759L10.7961 11.4716L10.2191 8.18159C10.2055 8.1058 10.2109 8.02784 10.2346 7.95459C10.2583 7.88134 10.2997 7.81506 10.3551 7.76159L12.7711 5.46159L9.40208 4.98059C9.3324 4.97029 9.26626 4.94325 9.20931 4.9018C9.15236 4.86036 9.10631 4.80573 9.07508 4.74259L7.54108 1.69959V9.84659L7.53908 9.85059Z" fill="#FFB300"/>
</svg>
