<svg width="14" height="13" viewBox="0 0 14 13" fill="none" xmlns="http://www.w3.org/2000/svg">
<path id="Path 105" d="M3.60307 12.6906C3.52862 12.7259 3.44577 12.7397 3.36391 12.7303C3.28205 12.7209 3.20444 12.6888 3.1399 12.6376C3.07535 12.5864 3.02645 12.5181 2.99873 12.4405C2.97101 12.3629 2.96558 12.2791 2.98307 12.1986L3.67307 8.26659L0.749068 5.47659C0.687077 5.41789 0.642565 5.34316 0.620472 5.26069C0.59838 5.17822 0.599571 5.09124 0.623913 5.00941C0.648256 4.92758 0.694797 4.85409 0.758373 4.79711C0.821948 4.74013 0.90007 4.70187 0.984068 4.68659L5.05607 4.10759L6.87207 0.507595C6.90677 0.43475 6.96139 0.373228 7.02962 0.330155C7.09785 0.287082 7.17688 0.264221 7.25757 0.264221C7.33825 0.264221 7.41729 0.287082 7.48552 0.330155C7.55374 0.373228 7.60837 0.43475 7.64307 0.507595L9.45907 4.10759L13.5311 4.68659C13.6151 4.70187 13.6932 4.74013 13.7568 4.79711C13.8203 4.85409 13.8669 4.92758 13.8912 5.00941C13.9156 5.09124 13.9168 5.17822 13.8947 5.26069C13.8726 5.34316 13.8281 5.41789 13.7661 5.47659L10.8371 8.26659L11.5271 12.1986C11.5446 12.2791 11.5391 12.3629 11.5114 12.4405C11.4837 12.5181 11.4348 12.5864 11.3702 12.6376C11.3057 12.6888 11.2281 12.7209 11.1462 12.7303C11.0644 12.7397 10.9815 12.7259 10.9071 12.6906L7.25707 10.8156L3.60307 12.6906Z" fill="#FFB300"/>
</svg>
