<svg width="9" height="5" viewBox="0 0 9 5" fill="none" xmlns="http://www.w3.org/2000/svg">
<g id="pdf">
<path id="Path 61" d="M8.76857 1.24499V0.618652H6.31857V4.99998H6.93157V3.12197H8.46257V2.49563H6.93157V1.24499H8.76857Z" fill="#203C3D"/>
<path id="Path 62" d="M2.03057 0.618652H0.192566V4.99998H0.805566V3.43566H2.03057C2.19314 3.43566 2.34906 3.36967 2.46402 3.2522C2.57898 3.13474 2.64357 2.97543 2.64357 2.80931V1.24499C2.64357 1.07888 2.57898 0.919565 2.46402 0.802103C2.34906 0.684642 2.19314 0.618652 2.03057 0.618652ZM2.03057 2.80931H0.805566V1.24499H2.03057V2.80931Z" fill="#203C3D"/>
<path id="Path 63" d="M4.48055 4.99998H3.25555V0.618652H4.48055C4.80544 0.618652 5.11703 0.750523 5.34676 0.985255C5.57649 1.21999 5.70555 1.53835 5.70555 1.87031V3.74831C5.70555 3.91269 5.67387 4.07545 5.61231 4.2273C5.55074 4.37916 5.46051 4.51715 5.34676 4.63337C5.23301 4.7496 5.09797 4.8418 4.94934 4.9047C4.80072 4.9676 4.64142 4.99998 4.48055 4.99998ZM3.86755 4.37364H4.48055C4.64313 4.37364 4.79905 4.30765 4.91401 4.19018C5.02897 4.07272 5.09355 3.91341 5.09355 3.74729V1.87031C5.09355 1.7042 5.02897 1.54489 4.91401 1.42742C4.79905 1.30996 4.64313 1.24397 4.48055 1.24397H3.86755V4.37364Z" fill="#203C3D"/>
</g>
</svg>
