<svg width="19" height="16" viewBox="0 0 19 16" fill="none" xmlns="http://www.w3.org/2000/svg">
<g id="Twitter">
<path id="Shape" fill-rule="evenodd" clip-rule="evenodd" d="M9.29838 4.25871L9.33907 4.95119L8.66096 4.8664C6.19265 4.54136 4.03628 3.43903 2.20539 1.5877L1.31029 0.669095L1.07973 1.34745C0.591495 2.85961 0.903424 4.45656 1.92058 5.53062C2.46307 6.12418 2.34101 6.20897 1.40522 5.85566C1.07973 5.7426 0.794927 5.65781 0.767803 5.70021C0.672868 5.79913 0.998359 7.08518 1.25604 7.59394C1.60865 8.30056 2.32745 8.99304 3.11405 9.40288L3.7786 9.72792L2.99199 9.74206C2.23251 9.74206 2.20539 9.75619 2.28676 10.053C2.558 10.9716 3.62941 11.9467 4.82288 12.3707L5.66373 12.6674L4.93138 13.1197C3.84641 13.7698 2.57157 14.1372 1.29673 14.1655C0.68643 14.1796 0.184631 14.2361 0.184631 14.2785C0.184631 14.4199 1.83921 15.2113 2.80212 15.5222C5.69086 16.4408 9.12207 16.0451 11.6989 14.4764C13.5298 13.3599 15.3607 11.1412 16.2151 8.99304C16.6762 7.84832 17.1373 5.75674 17.1373 4.75334C17.1373 4.10325 17.178 4.01846 17.9375 3.24118C18.385 2.78895 18.8054 2.29431 18.8868 2.15299C19.0224 1.88448 19.0089 1.88448 18.3172 2.12473C17.1644 2.5487 17.0017 2.49217 17.5713 1.85621C17.9917 1.40398 18.4935 0.584301 18.4935 0.344051C18.4935 0.301654 18.2901 0.372316 18.0595 0.499507C17.8154 0.64083 17.2729 0.852816 16.866 0.980007L16.1337 1.22026L15.4691 0.753889C15.103 0.499507 14.5876 0.21686 14.3164 0.132066C13.6247 -0.0657864 12.5669 -0.0375217 11.943 0.188596C10.2477 0.824551 9.17632 2.4639 9.29838 4.25871Z" fill="white"/>
</g>
</svg>
