<svg width="23" height="16" viewBox="0 0 23 16" fill="none" xmlns="http://www.w3.org/2000/svg">
<g id="Youtube">
<path id="Fill 1" fill-rule="evenodd" clip-rule="evenodd" d="M21.9852 2.49979C21.737 1.51569 21.0058 0.740742 20.0772 0.477737C18.3944 -0.000244141 11.6459 -0.000244141 11.6459 -0.000244141C11.6459 -0.000244141 4.89737 -0.000244141 3.21445 0.477737C2.28586 0.740742 1.55457 1.51569 1.30639 2.49979C0.85553 4.28338 0.85553 8.00484 0.85553 8.00484C0.85553 8.00484 0.85553 11.7262 1.30639 13.5099C1.55457 14.494 2.28586 15.2689 3.21445 15.5321C4.89737 16.0099 11.6459 16.0099 11.6459 16.0099C11.6459 16.0099 18.3944 16.0099 20.0772 15.5321C21.0058 15.2689 21.737 14.494 21.9852 13.5099C22.4362 11.7262 22.4362 8.00484 22.4362 8.00484C22.4362 8.00484 22.4362 4.28338 21.9852 2.49979Z" fill="white"/>
<path id="Fill 2" fill-rule="evenodd" clip-rule="evenodd" d="M9.62286 11.8337V4.8728L15.018 8.35341L9.62286 11.8337Z" fill="#203C3D"/>
</g>
</svg>
